<svg width="84" height="50" viewBox="0 0 84 50" fill="none" xmlns="http://www.w3.org/2000/svg">
<path d="M0 0H59C72.8071 0 84 11.1929 84 25C84 38.8071 72.8071 50 59 50H0V0Z" fill="#5036E6"/>
<path d="M28.144 31H26.112L21.248 25.208V31H19.52V19.576H21.248V25.112L26.016 19.576H27.92L23.2 25.112L28.144 31ZM38.1246 31H36.3966V21.064H33.0206C32.9246 21.8107 32.818 22.6107 32.7006 23.464C32.594 24.3067 32.482 25.1173 32.3646 25.896C32.2473 26.6747 32.1353 27.3413 32.0286 27.896C31.89 28.6 31.714 29.1973 31.5006 29.688C31.2873 30.168 31.0046 30.536 30.6526 30.792C30.3006 31.048 29.8366 31.176 29.2606 31.176C28.866 31.176 28.5086 31.112 28.1886 30.984V29.56C28.3166 29.6133 28.45 29.656 28.5886 29.688C28.738 29.72 28.8926 29.736 29.0526 29.736C29.3406 29.736 29.57 29.624 29.7406 29.4C29.922 29.176 30.0606 28.8773 30.1566 28.504C30.2633 28.1307 30.3646 27.72 30.4606 27.272C30.5353 26.888 30.6313 26.312 30.7486 25.544C30.8766 24.776 31.01 23.88 31.1486 22.856C31.298 21.832 31.442 20.7387 31.5806 19.576H38.1246V31ZM46.2006 27.72C45.8593 28.4773 45.5126 29.112 45.1606 29.624C44.8193 30.1253 44.398 30.5093 43.8966 30.776C43.406 31.032 42.7713 31.16 41.9926 31.16C41.3953 31.16 40.8513 31.08 40.3606 30.92V29.304C40.83 29.5067 41.342 29.608 41.8966 29.608C42.4726 29.608 42.9153 29.48 43.2246 29.224C43.5446 28.968 43.8273 28.5573 44.0726 27.992L39.8166 19.576H41.6886L44.5526 25.464C44.6166 25.592 44.6913 25.7573 44.7766 25.96C44.8726 26.1627 44.9473 26.344 45.0006 26.504H45.0646C45.118 26.376 45.182 26.2053 45.2566 25.992C45.342 25.7787 45.4166 25.6027 45.4806 25.464L48.0086 19.576H49.8166L46.2006 27.72ZM51.3325 31V19.576H58.2445V21.064H53.0605V24.28H54.5325C55.6525 24.28 56.5378 24.424 57.1885 24.712C57.8392 24.9893 58.2978 25.3787 58.5645 25.88C58.8418 26.3813 58.9805 26.952 58.9805 27.592C58.9805 28.6587 58.6445 29.496 57.9725 30.104C57.3005 30.7013 56.2018 31 54.6765 31H51.3325ZM54.5485 29.544C55.4872 29.544 56.1645 29.3893 56.5805 29.08C56.9965 28.76 57.2045 28.264 57.2045 27.592C57.2045 26.888 56.9752 26.4027 56.5165 26.136C56.0578 25.8693 55.3218 25.736 54.3085 25.736H53.0605V29.544H54.5485Z" fill="white"/>
</svg>
